<svg width="162" height="34" viewBox="0 0 162 34" fill="none" xmlns="http://www.w3.org/2000/svg">
<rect width="162" height="34" fill="#1E1E1E"/>
<path fill-rule="evenodd" clip-rule="evenodd" d="M0 3.73509C0 1.69269 1.68543 0 3.73029 0H30.2697C32.3146 0 34 1.69269 34 3.73509V10.841C34 21.1817 27.761 30.0993 18.3989 33.7275C17.561 34.1209 16.5434 34.0481 15.7007 33.7639L15.6716 33.7542L15.6473 33.7469C6.25357 30.1284 0 20.9631 0 10.841V3.73509ZM8.87643 12.4608C9.75314 11.81 12.8229 10.2509 16.9951 10.2509C21.1674 10.2509 24.2323 11.81 25.1114 12.4608C25.2711 12.5853 25.454 12.6767 25.6495 12.7294C25.845 12.7821 26.0491 12.7952 26.2497 12.7679C26.4503 12.7406 26.6435 12.6734 26.8177 12.5703C26.992 12.4672 27.1439 12.3303 27.2644 12.1676C27.385 12.005 27.4717 11.8198 27.5197 11.6231C27.5676 11.4264 27.5756 11.2221 27.5434 11.0222C27.5111 10.8223 27.4392 10.6309 27.3318 10.4592C27.2245 10.2875 27.0839 10.1391 26.9183 10.0226C25.5389 9.00016 21.8426 7.21518 16.9951 7.21518C12.1477 7.21518 8.44657 9.00016 7.06957 10.0226C6.90397 10.1391 6.76336 10.2875 6.65601 10.4592C6.54866 10.6309 6.47674 10.8223 6.44449 11.0222C6.41223 11.2221 6.4203 11.4264 6.46821 11.6231C6.51612 11.8198 6.6029 12.005 6.72345 12.1676C6.844 12.3303 6.99588 12.4672 7.17014 12.5703C7.34441 12.6734 7.53754 12.7406 7.73816 12.7679C7.93878 12.7952 8.14284 12.7821 8.33833 12.7294C8.53381 12.6767 8.71677 12.5853 8.87643 12.4608ZM16.9951 16.5262C15.062 16.5262 12.835 17.4587 11.9826 17.9323C11.6306 18.1278 11.2153 18.1754 10.8282 18.0648C10.4411 17.9541 10.1138 17.6942 9.91829 17.3422C9.7228 16.9902 9.67516 16.575 9.78583 16.1878C9.8965 15.8007 10.1564 15.4734 10.5084 15.2779C11.5721 14.6878 14.3286 13.4905 16.9927 13.4905C19.6617 13.4905 22.4157 14.6878 23.4794 15.2779C23.8314 15.4734 24.0914 15.8007 24.202 16.1878C24.3127 16.575 24.2651 16.9902 24.0696 17.3422C23.8741 17.6942 23.5468 17.9541 23.1597 18.0648C22.7725 18.1754 22.3573 18.1278 22.0053 17.9323C21.1529 17.4587 18.9259 16.5262 16.9951 16.5262ZM15.8489 23.3747C16.0114 23.2916 16.1803 23.2218 16.354 23.1658C16.5613 23.0967 16.7769 23.0558 16.9951 23.0444C17.3939 23.0809 17.7821 23.193 18.139 23.3747C18.4895 23.5551 18.8964 23.5921 19.2736 23.4779C19.6509 23.3637 19.969 23.1071 20.1605 22.7626C20.352 22.4181 20.4019 22.0126 20.2998 21.6319C20.1977 21.2511 19.9514 20.9251 19.6131 20.7227C19.1954 20.4896 18.1147 20.0087 16.9951 20.0087C15.8756 20.0087 14.7949 20.4896 14.3723 20.7227C14.1949 20.8179 14.0383 20.9474 13.9114 21.1037C13.7846 21.2601 13.6901 21.44 13.6335 21.6332C13.5769 21.8264 13.5593 22.0289 13.5817 22.2289C13.6041 22.429 13.666 22.6226 13.764 22.7984C13.8619 22.9743 13.9938 23.129 14.1521 23.2534C14.3103 23.3778 14.4917 23.4694 14.6858 23.5231C14.8798 23.5767 15.0825 23.5912 15.2822 23.5657C15.4819 23.5402 15.6745 23.4753 15.8489 23.3747Z" fill="#EE1460"/>
<path d="M63.1989 12H60.5568C60.4006 11.2401 60.1271 10.5724 59.7365 9.99716C59.353 9.42188 58.8842 8.93892 58.3303 8.5483C57.7834 8.15057 57.1761 7.85227 56.5085 7.65341C55.8409 7.45455 55.1449 7.35511 54.4205 7.35511C53.0994 7.35511 51.9027 7.68892 50.8303 8.35653C49.7649 9.02415 48.9162 10.0078 48.2841 11.3075C47.6591 12.6072 47.3466 14.2017 47.3466 16.0909C47.3466 17.9801 47.6591 19.5746 48.2841 20.8743C48.9162 22.174 49.7649 23.1577 50.8303 23.8253C51.9027 24.4929 53.0994 24.8267 54.4205 24.8267C55.1449 24.8267 55.8409 24.7273 56.5085 24.5284C57.1761 24.3295 57.7834 24.0348 58.3303 23.6442C58.8842 23.2464 59.353 22.7599 59.7365 22.1847C60.1271 21.6023 60.4006 20.9347 60.5568 20.1818H63.1989C63 21.2969 62.6378 22.2947 62.1122 23.1754C61.5866 24.0561 60.9332 24.8054 60.152 25.4233C59.3707 26.0341 58.4936 26.4993 57.5206 26.8189C56.5547 27.1385 55.5213 27.2983 54.4205 27.2983C52.5597 27.2983 50.9048 26.8438 49.456 25.9347C48.0071 25.0256 46.8672 23.733 46.0362 22.0568C45.2053 20.3807 44.7898 18.392 44.7898 16.0909C44.7898 13.7898 45.2053 11.8011 46.0362 10.125C46.8672 8.44886 48.0071 7.15625 49.456 6.24716C50.9048 5.33807 52.5597 4.88352 54.4205 4.88352C55.5213 4.88352 56.5547 5.04332 57.5206 5.36293C58.4936 5.68253 59.3707 6.15128 60.152 6.76918C60.9332 7.37997 61.5866 8.12571 62.1122 9.00639C62.6378 9.87997 63 10.8778 63.1989 12ZM73.775 27.3409C72.2978 27.3409 71.0016 26.9893 69.8865 26.2862C68.7786 25.5831 67.9121 24.5994 67.2871 23.3352C66.6692 22.071 66.3603 20.5937 66.3603 18.9034C66.3603 17.1989 66.6692 15.7109 67.2871 14.4396C67.9121 13.1683 68.7786 12.1811 69.8865 11.478C71.0016 10.7749 72.2978 10.4233 73.775 10.4233C75.2523 10.4233 76.5449 10.7749 77.6529 11.478C78.7679 12.1811 79.6344 13.1683 80.2523 14.4396C80.8773 15.7109 81.1898 17.1989 81.1898 18.9034C81.1898 20.5937 80.8773 22.071 80.2523 23.3352C79.6344 24.5994 78.7679 25.5831 77.6529 26.2862C76.5449 26.9893 75.2523 27.3409 73.775 27.3409ZM73.775 25.0824C74.8972 25.0824 75.8205 24.7947 76.5449 24.2195C77.2694 23.6442 77.8056 22.8878 78.1536 21.9503C78.5016 21.0128 78.6756 19.9972 78.6756 18.9034C78.6756 17.8097 78.5016 16.7905 78.1536 15.8459C77.8056 14.9013 77.2694 14.1378 76.5449 13.5554C75.8205 12.973 74.8972 12.6818 73.775 12.6818C72.6529 12.6818 71.7296 12.973 71.0051 13.5554C70.2807 14.1378 69.7445 14.9013 69.3965 15.8459C69.0485 16.7905 68.8745 17.8097 68.8745 18.9034C68.8745 19.9972 69.0485 21.0128 69.3965 21.9503C69.7445 22.8878 70.2807 23.6442 71.0051 24.2195C71.7296 24.7947 72.6529 25.0824 73.775 25.0824ZM87.5419 17.1562V27H85.0277V10.6364H87.4567V13.1932H87.6697C88.0533 12.3622 88.6357 11.6946 89.4169 11.1903C90.1982 10.679 91.2067 10.4233 92.4425 10.4233C93.5504 10.4233 94.5199 10.6506 95.3509 11.1051C96.1818 11.5526 96.8281 12.2344 97.2898 13.1506C97.7514 14.0597 97.9822 15.2102 97.9822 16.6023V27H95.468V16.7727C95.468 15.4872 95.1342 14.4858 94.4666 13.7685C93.799 13.044 92.8828 12.6818 91.718 12.6818C90.9155 12.6818 90.1982 12.8558 89.5661 13.2038C88.9411 13.5518 88.4474 14.0597 88.0852 14.7273C87.723 15.3949 87.5419 16.2045 87.5419 17.1562ZM105.091 17.1562V27H102.577V10.6364H105.006V13.1932H105.219C105.602 12.3622 106.184 11.6946 106.966 11.1903C107.747 10.679 108.756 10.4233 109.991 10.4233C111.099 10.4233 112.069 10.6506 112.9 11.1051C113.731 11.5526 114.377 12.2344 114.839 13.1506C115.3 14.0597 115.531 15.2102 115.531 16.6023V27H113.017V16.7727C113.017 15.4872 112.683 14.4858 112.015 13.7685C111.348 13.044 110.432 12.6818 109.267 12.6818C108.464 12.6818 107.747 12.8558 107.115 13.2038C106.49 13.5518 105.996 14.0597 105.634 14.7273C105.272 15.3949 105.091 16.2045 105.091 17.1562ZM126.986 27.3409C125.409 27.3409 124.049 26.9929 122.906 26.2969C121.77 25.5938 120.892 24.6136 120.275 23.3565C119.664 22.0923 119.358 20.6222 119.358 18.946C119.358 17.2699 119.664 15.7926 120.275 14.5142C120.892 13.2287 121.752 12.2273 122.853 11.5099C123.961 10.7855 125.253 10.4233 126.73 10.4233C127.583 10.4233 128.424 10.5653 129.255 10.8494C130.086 11.1335 130.843 11.5952 131.525 12.2344C132.206 12.8665 132.75 13.7045 133.154 14.7486C133.559 15.7926 133.762 17.0781 133.762 18.6051V19.6705H121.148V17.4972H131.205C131.205 16.5739 131.02 15.75 130.651 15.0256C130.289 14.3011 129.77 13.7294 129.096 13.3104C128.428 12.8913 127.64 12.6818 126.73 12.6818C125.729 12.6818 124.863 12.9304 124.131 13.4276C123.407 13.9176 122.849 14.5568 122.458 15.3452C122.068 16.1335 121.873 16.9787 121.873 17.8807V19.3295C121.873 20.5653 122.086 21.6129 122.512 22.4723C122.945 23.3246 123.545 23.9744 124.312 24.4219C125.079 24.8622 125.971 25.0824 126.986 25.0824C127.647 25.0824 128.243 24.9901 128.776 24.8054C129.316 24.6136 129.781 24.3295 130.172 23.9531C130.562 23.5696 130.864 23.0937 131.077 22.5256L133.506 23.2074C133.25 24.0312 132.821 24.7557 132.217 25.3807C131.613 25.9986 130.868 26.4815 129.98 26.8295C129.092 27.1705 128.094 27.3409 126.986 27.3409ZM144.234 27.3409C142.7 27.3409 141.379 26.9787 140.271 26.2543C139.163 25.5298 138.311 24.532 137.714 23.2607C137.118 21.9893 136.819 20.5369 136.819 18.9034C136.819 17.2415 137.125 15.7749 137.735 14.5036C138.353 13.2251 139.213 12.2273 140.314 11.5099C141.422 10.7855 142.714 10.4233 144.191 10.4233C145.342 10.4233 146.379 10.6364 147.302 11.0625C148.225 11.4886 148.982 12.0852 149.571 12.8523C150.161 13.6193 150.527 14.5142 150.669 15.5369H148.154C147.963 14.7912 147.537 14.1307 146.876 13.5554C146.223 12.973 145.342 12.6818 144.234 12.6818C143.254 12.6818 142.395 12.9375 141.656 13.4489C140.924 13.9531 140.353 14.6669 139.941 15.5902C139.536 16.5064 139.333 17.5824 139.333 18.8182C139.333 20.0824 139.532 21.1832 139.93 22.1207C140.335 23.0582 140.903 23.7862 141.635 24.3047C142.373 24.8232 143.24 25.0824 144.234 25.0824C144.887 25.0824 145.48 24.9688 146.013 24.7415C146.546 24.5142 146.997 24.1875 147.366 23.7614C147.735 23.3352 147.998 22.8239 148.154 22.2273H150.669C150.527 23.1932 150.175 24.0632 149.614 24.8374C149.06 25.6044 148.325 26.2152 147.409 26.6697C146.5 27.1172 145.441 27.3409 144.234 27.3409ZM161.461 10.6364V12.767H152.98V10.6364H161.461ZM155.452 6.71591H157.966V22.3125C157.966 23.0227 158.069 23.5554 158.275 23.9105C158.488 24.2585 158.758 24.4929 159.085 24.6136C159.419 24.7273 159.77 24.7841 160.14 24.7841C160.417 24.7841 160.644 24.7699 160.821 24.7415C160.999 24.706 161.141 24.6776 161.248 24.6562L161.759 26.9148C161.588 26.9787 161.35 27.0426 161.045 27.1065C160.74 27.1776 160.353 27.2131 159.884 27.2131C159.174 27.2131 158.478 27.0604 157.796 26.755C157.121 26.4496 156.56 25.9844 156.113 25.3594C155.672 24.7344 155.452 23.946 155.452 22.9943V6.71591Z" fill="#EE1460"/>
</svg>
